<?xml version="1.0" standalone="no"?>
<!DOCTYPE svg PUBLIC "-//W3C//DTD SVG 20010904//EN"
 "http://www.w3.org/TR/2001/REC-SVG-20010904/DTD/svg10.dtd">
<svg version="1.0" xmlns="http://www.w3.org/2000/svg"
 width="1980.000000pt" height="1080.000000pt" viewBox="0 0 1980.000000 1080.000000"
 preserveAspectRatio="xMidYMid meet">

<g transform="translate(0.000000,1080.000000) scale(0.100000,-0.100000)"
fill="#000000" stroke="none">
<path d="M10080 10323 c-638 -35 -1251 -290 -1711 -710 -313 -286 -554 -628
-709 -1003 -343 -836 -250 -1817 243 -2563 195 -295 390 -501 694 -730 56 -42
104 -81 107 -86 21 -34 -85 -448 -167 -656 -29 -72 -71 -157 -94 -190 -90
-126 -117 -172 -139 -239 -31 -90 -88 -309 -109 -416 -42 -217 -116 -411 -212
-555 -36 -53 -50 -65 -125 -103 -58 -30 -107 -46 -153 -53 -87 -12 -174 -51
-249 -111 -33 -27 -66 -48 -73 -48 -22 0 -53 -83 -55 -144 -1 -46 3 -61 27
-91 32 -43 78 -65 133 -65 26 0 45 -7 57 -20 18 -20 35 -30 127 -76 25 -13 49
-28 52 -33 4 -5 31 -15 60 -21 30 -6 62 -20 72 -31 9 -10 40 -26 67 -34 28 -8
61 -22 74 -30 21 -14 30 -14 76 -2 29 8 66 20 83 27 28 12 36 11 90 -20 103
-58 162 -86 234 -110 39 -13 70 -27 70 -32 0 -4 7 -8 16 -8 12 0 10 5 -7 19
-35 28 -17 36 35 16 47 -18 69 -14 59 10 -3 8 -1 15 5 15 9 0 23 -68 24 -115
0 -12 -16 -47 -36 -78 -28 -43 -39 -73 -45 -122 -4 -40 -14 -72 -26 -85 -18
-20 -26 -21 -101 -15 -76 7 -83 6 -93 -13 -6 -12 -10 -25 -10 -29 1 -4 -3 -21
-9 -36 -15 -34 -15 -57 -2 -57 5 0 7 7 4 15 -8 20 6 19 22 -3 18 -23 18 -26
-12 -61 -14 -17 -26 -45 -27 -63 -1 -18 -6 -38 -9 -44 -15 -23 6 -22 35 2 16
14 35 23 41 21 21 -7 17 -37 -8 -60 -14 -14 -26 -29 -26 -36 0 -6 -4 -11 -10
-11 -5 0 -10 5 -10 10 0 16 -30 11 -37 -6 -4 -12 -9 -9 -19 15 -11 27 -43 44
-44 24 -1 -5 -19 -28 -41 -53 -30 -32 -42 -41 -48 -31 -11 17 -23 -2 -15 -23
3 -9 17 -16 29 -16 35 0 37 -14 7 -43 -20 -19 -31 -24 -42 -17 -12 8 -13 13
-2 30 15 25 15 27 -4 34 -23 9 -37 -3 -24 -19 8 -9 8 -15 0 -20 -5 -3 -10 -1
-10 4 0 22 -18 10 -25 -16 -4 -16 -10 -22 -12 -15 -9 24 -25 12 -20 -15 3 -19
-1 -32 -17 -45 -16 -13 -18 -20 -8 -26 10 -7 10 -14 -3 -38 -19 -37 -19 -51 2
-63 10 -5 17 -21 18 -37 0 -21 6 -30 25 -34 14 -4 31 -2 38 3 18 14 93 18 109
6 21 -18 15 -29 -16 -29 -20 0 -36 -9 -50 -26 -20 -25 -19 -54 2 -54 7 0 7 -4
-1 -12 -10 -10 -14 -10 -21 0 -6 10 -10 3 -15 -19 -3 -18 -2 -37 4 -43 18 -18
10 -28 -20 -24 -42 6 -53 -10 -41 -63 8 -35 7 -45 -5 -52 -7 -4 -14 -18 -14
-30 0 -15 -3 -18 -8 -9 -6 9 -12 6 -21 -11 -10 -20 -10 -33 3 -77 9 -30 16
-64 16 -76 0 -12 6 -25 13 -27 9 -4 9 -7 -1 -15 -14 -9 -12 -70 3 -104 4 -10
8 -29 9 -42 1 -18 4 -22 14 -14 14 12 18 -12 3 -28 -11 -12 -23 -94 -13 -94
16 0 70 57 64 68 -4 6 -7 50 -7 99 0 75 -3 91 -20 108 l-20 20 23 3 c20 3 23
9 20 35 -3 29 -1 32 22 29 38 -5 62 -35 70 -89 9 -55 1 -145 -11 -137 -5 2
-12 -8 -15 -23 -4 -15 -13 -34 -20 -41 -7 -7 -11 -19 -8 -26 7 -17 -16 -92
-50 -169 -14 -32 -26 -62 -26 -67 0 -15 64 -12 86 5 24 18 34 19 34 0 0 -20
39 -5 58 23 13 20 13 22 -2 22 -18 0 -20 12 -7 38 6 9 12 29 16 45 3 15 10 27
16 27 6 0 7 -4 4 -10 -3 -6 1 -7 9 -4 9 3 16 16 16 28 0 12 7 31 15 42 19 25
19 35 0 28 -10 -4 -15 0 -15 12 0 9 3 15 6 11 4 -3 13 1 22 9 12 13 13 19 2
39 -7 13 -9 28 -6 34 4 6 3 11 -3 11 -5 0 -13 -4 -16 -10 -3 -5 -10 -10 -15
-10 -5 0 2 12 15 26 27 30 32 50 13 58 -9 3 -8 8 5 16 16 11 17 14 4 28 -22
25 -26 82 -7 82 6 0 10 -6 8 -14 -2 -8 2 -15 7 -15 6 -1 10 7 11 17 0 9 5 27
12 39 17 31 15 54 -7 77 -19 22 -54 126 -45 136 8 7 44 -39 44 -56 0 -7 12
-19 28 -26 15 -8 31 -26 37 -44 6 -17 15 -29 23 -27 17 6 15 0 -8 -42 l-20
-36 20 11 c12 6 25 23 31 37 7 20 14 24 32 19 12 -3 25 -6 30 -6 4 0 7 -6 7
-14 0 -8 11 -23 25 -34 23 -18 26 -52 5 -52 -4 0 -12 -27 -17 -61 -9 -56 -9
-60 9 -56 20 6 36 -11 21 -22 -6 -3 -13 -19 -17 -35 -8 -33 14 -55 56 -56 26
0 51 -20 26 -20 -8 0 -5 -5 5 -11 12 -7 40 -8 75 -4 51 6 55 5 43 -9 -7 -9
-23 -16 -35 -16 -25 -1 -50 -18 -59 -43 -5 -12 -13 -16 -25 -13 -16 5 -19 1
-20 -24 -1 -26 2 -30 19 -25 17 6 19 3 13 -19 -6 -24 -3 -26 24 -26 16 0 35
-7 43 -16 8 -10 21 -13 36 -9 12 3 39 -1 59 -10 29 -12 34 -18 29 -35 -6 -19
-2 -20 102 -20 l108 0 0 43 c1 23 4 50 9 59 6 14 2 20 -17 27 -28 11 -70 4
-61 -10 3 -5 10 -7 15 -4 5 4 9 2 9 -4 0 -21 -40 -22 -62 -2 -12 12 -26 21
-31 21 -5 0 -7 6 -4 14 3 8 1 17 -6 20 -7 3 -2 3 10 0 18 -4 20 -1 16 16 -3
11 0 20 6 20 6 0 11 -5 11 -11 0 -5 4 -8 10 -4 5 3 7 12 4 20 -4 8 -10 13 -14
10 -17 -10 -19 40 -2 59 16 18 16 19 -10 12 -15 -3 -30 -2 -33 4 -3 5 -1 10 6
10 6 0 9 8 6 20 -3 10 0 21 6 23 11 3 7 15 -22 62 -11 17 -17 40 -14 53 3 12
0 22 -6 22 -19 0 -12 15 11 25 17 8 25 22 30 57 3 27 14 69 24 95 13 34 15 48
6 51 -14 4 -16 68 -2 77 6 3 10 19 10 35 0 42 29 122 51 143 13 12 17 26 14
40 -4 16 1 29 14 41 23 21 29 6 7 -17 -17 -17 -9 -70 10 -63 43 16 84 17 99 2
9 -9 21 -14 26 -11 22 14 7 -44 -18 -66 -14 -13 -23 -18 -19 -11 4 6 3 12 -3
12 -5 0 -12 -8 -15 -17 -3 -10 -20 -33 -37 -51 -34 -37 -33 -62 5 -62 13 0 34
-8 47 -19 l23 -18 -21 -11 c-12 -7 -44 -10 -73 -7 -69 5 -80 0 -80 -44 0 -30
-9 -75 -31 -161 -2 -8 1 -14 7 -13 7 1 10 -6 7 -16 -3 -10 0 -22 6 -25 6 -4
11 -15 11 -25 0 -9 14 -30 30 -46 17 -16 30 -37 30 -47 0 -10 6 -18 14 -18 8
0 16 -5 18 -12 3 -7 9 -8 19 -2 12 8 36 11 92 14 9 1 17 6 17 11 0 5 10 7 23
4 18 -5 26 -1 35 19 13 29 32 35 32 10 0 -11 5 -14 16 -10 9 3 17 6 20 6 2 0
1 7 -2 15 -4 8 -1 15 5 15 6 0 11 -4 11 -9 0 -5 8 -8 18 -6 9 1 11 0 5 -2 -17
-6 -16 -18 2 -37 8 -8 15 -22 15 -31 0 -8 -7 -18 -15 -21 -8 -4 -15 -12 -15
-20 0 -17 -39 -44 -63 -44 -22 0 -51 -26 -43 -39 3 -4 -3 -16 -14 -26 -11 -10
-20 -23 -20 -28 0 -5 -21 -34 -46 -63 l-46 -54 376 0 c207 0 376 3 376 7 0 14
-54 63 -70 63 -9 0 -29 -13 -45 -30 -29 -30 -55 -39 -55 -19 0 15 77 102 128
145 30 25 48 33 62 29 24 -7 26 -33 6 -61 -15 -19 -13 -46 6 -96 10 -27 38
-47 38 -27 0 6 7 8 16 5 8 -3 26 1 39 10 28 18 55 13 55 -12 0 -11 5 -14 16
-10 9 3 20 6 26 6 6 0 6 6 -2 15 -7 8 -16 12 -21 9 -5 -3 -6 2 -3 10 3 8 18
21 34 28 23 10 28 18 27 47 0 20 3 60 8 89 7 49 7 52 -14 52 -23 0 -61 -18
-73 -35 -5 -7 -8 -7 -8 0 0 6 -13 -10 -29 -34 -31 -46 -58 -68 -69 -56 -4 4 6
16 21 27 22 16 25 23 16 34 -6 8 -18 14 -26 14 -20 0 -9 50 15 68 21 16 30 -2
12 -23 -10 -12 -10 -15 2 -15 9 0 26 16 39 35 23 33 39 44 39 27 0 -4 -5 -13
-12 -20 -9 -9 -8 -12 8 -12 10 0 25 9 32 20 7 11 19 20 27 20 9 0 12 6 9 15
-4 9 3 19 20 26 14 7 26 16 26 22 0 5 7 7 15 3 14 -5 45 17 45 33 0 3 -14 15
-30 25 l-31 18 7 -26 c5 -20 2 -26 -11 -26 -9 0 -13 5 -9 11 3 6 1 22 -6 35
-11 20 -11 27 4 43 25 28 25 89 1 108 -16 11 -22 11 -30 0 -5 -7 -26 -24 -45
-37 -19 -13 -46 -38 -61 -55 -32 -35 -50 -28 -25 10 l16 25 -46 0 c-64 0 -53
23 17 33 36 6 63 17 81 34 20 19 30 23 44 15 14 -8 30 -4 69 16 27 14 56 32
63 39 18 18 35 16 28 -2 -6 -18 -1 -19 24 -5 15 8 23 4 43 -19 13 -16 33 -31
43 -34 17 -4 17 -5 1 -6 -10 0 -16 -5 -13 -10 7 -10 56 -2 56 10 0 5 21 9 48
8 41 0 51 -5 75 -34 32 -39 29 -77 -9 -101 -12 -9 -21 -21 -18 -28 2 -6 -7
-22 -21 -34 -46 -40 -32 -54 78 -77 15 -3 25 -9 23 -14 -3 -5 1 -14 8 -20 24
-20 115 -2 163 32 45 32 68 29 59 -10 -7 -24 -7 -24 21 -6 96 60 227 179 219
200 -7 16 27 66 38 56 3 -3 14 1 23 9 10 8 34 18 53 21 33 6 34 6 15 -8 -15
-12 -17 -19 -9 -33 9 -13 4 -26 -25 -64 -19 -27 -52 -60 -73 -73 -43 -29 -68
-34 -48 -10 11 13 10 14 -4 9 -15 -6 -20 -18 -17 -38 1 -4 -3 -14 -9 -20 -5
-7 -7 -16 -3 -20 4 -4 -3 -9 -15 -13 -12 -3 -19 -9 -16 -14 3 -5 1 -9 -5 -9
-5 0 -8 -8 -6 -18 3 -24 -13 -42 -39 -42 -20 1 -20 1 -2 15 10 8 24 12 30 8 7
-4 7 -2 0 7 -26 27 -90 -30 -77 -68 3 -8 -9 -31 -26 -52 -17 -21 -31 -44 -31
-49 0 -6 -9 -20 -20 -31 -16 -16 -17 -20 -5 -20 18 0 18 -2 4 -34 -7 -14 -15
-24 -18 -21 -4 2 -13 0 -21 -6 -10 -5 53 -9 168 -9 172 0 184 1 212 22 18 13
30 31 30 45 0 14 6 23 15 23 8 0 15 -4 15 -10 0 -5 4 -10 10 -10 5 0 7 7 4 15
-4 8 -1 15 5 15 6 0 11 -4 11 -10 0 -16 18 -12 39 9 11 11 36 23 56 27 27 5
40 14 52 38 8 17 22 39 31 49 20 22 29 68 10 49 -6 -6 -22 -12 -35 -12 -13 0
-26 -7 -29 -15 -4 -9 -18 -15 -38 -14 -17 0 -42 -2 -56 -5 -28 -7 -76 26 -65
44 5 8 14 4 26 -9 19 -20 22 -20 49 -6 17 9 30 20 30 26 0 7 10 9 25 5 14 -4
25 -2 25 4 0 5 6 10 13 10 8 0 14 7 14 16 0 12 -7 14 -29 10 -20 -4 -28 -2
-28 9 0 18 37 39 75 41 19 1 37 12 52 30 28 35 30 54 4 30 -10 -9 -25 -14 -35
-10 -27 10 -18 22 24 29 22 4 40 12 39 18 -4 35 22 57 46 37 19 -16 69 32 60
59 -6 19 -3 21 30 21 28 0 38 5 47 25 6 14 15 25 20 25 17 0 -4 -45 -33 -70
-20 -18 -26 -29 -20 -39 10 -16 -3 -46 -34 -73 -11 -9 -15 -17 -9 -18 15 0
109 93 147 147 21 31 42 49 58 51 l24 4 -22 -24 c-28 -29 -29 -48 -5 -48 10 0
23 -5 29 -11 23 -23 107 67 186 198 43 71 45 83 16 109 -12 10 -28 32 -36 47
-13 27 -13 31 11 67 31 47 24 85 -29 166 -25 37 -42 78 -50 118 -15 75 -55
171 -104 247 -28 43 -43 83 -61 164 -17 74 -30 111 -42 119 -10 6 -18 16 -18
23 0 18 -11 16 -26 -4 -11 -17 -14 -15 -25 12 -7 17 -11 40 -10 53 2 13 -3 30
-10 38 -11 13 -9 19 9 33 15 11 21 23 16 34 -3 10 -2 23 4 30 15 18 40 117 39
154 l0 31 -29 -36 c-70 -89 -120 -178 -131 -232 -13 -65 -15 -69 -27 -50 -22
34 -4 86 63 183 42 60 46 81 9 47 -25 -23 -33 -25 -26 -6 3 8 1 17 -5 21 -27
16 37 115 75 115 14 0 14 -15 -2 -70 -2 -9 2 -8 11 5 25 32 47 135 29 135 -4
0 -12 -7 -19 -16 -11 -16 -12 -16 -18 0 -4 10 -1 19 8 22 13 5 13 8 0 21 -8 8
-15 26 -15 41 l0 26 -17 -24 c-10 -14 -18 -43 -19 -64 -1 -35 -5 -41 -30 -48
-17 -4 -33 -3 -41 4 -19 15 -17 -7 2 -26 8 -8 15 -23 15 -33 -1 -16 -2 -17
-13 -2 -7 9 -21 18 -32 21 -16 3 -19 11 -17 38 1 18 8 40 14 47 6 7 8 17 4 21
-4 4 -14 -2 -22 -12 -7 -11 -17 -16 -21 -13 -4 4 -1 13 5 19 15 15 16 48 2 48
-5 0 -10 7 -10 15 0 8 -4 15 -8 15 -5 0 -14 11 -20 24 -9 20 -17 24 -46 21
-26 -3 -36 0 -36 11 0 8 -4 14 -10 14 -5 0 -10 -17 -11 -37 -2 -152 -1 -147
-34 -147 -20 0 -40 10 -58 28 l-28 27 -2 192 c-2 125 -7 200 -15 214 -14 25
-16 83 -3 83 5 0 9 -16 9 -36 0 -19 3 -38 6 -41 3 -4 6 3 6 13 0 11 4 24 9 30
5 5 11 18 13 29 2 13 13 -2 36 -50 47 -99 48 -100 66 -97 9 2 16 -2 16 -8 0
-5 -7 -10 -15 -10 -9 0 -12 -6 -8 -16 4 -11 13 -14 31 -9 22 5 24 4 13 -9 -10
-12 -9 -19 4 -39 9 -14 24 -28 33 -32 14 -5 15 -4 5 6 -7 7 -13 17 -13 21 0
13 18 9 35 -8 9 -9 18 -14 21 -11 5 4 -63 147 -75 157 -3 3 -12 12 -19 21 -10
14 -10 18 2 22 17 7 79 -40 71 -53 -3 -4 8 -24 25 -44 16 -21 27 -43 24 -50
-3 -7 2 -13 10 -13 12 0 13 5 4 21 -7 14 0 11 23 -11 76 -72 99 -92 99 -84 0
14 -86 125 -141 182 -34 36 -46 54 -38 60 8 4 -9 22 -49 51 -34 23 -64 52 -68
63 -4 10 -20 32 -36 48 -79 80 -105 144 -85 218 8 33 53 55 74 37 12 -10 18
-9 29 7 19 25 18 41 -1 25 -11 -9 -18 -10 -28 -1 -8 6 -17 8 -20 4 -4 -3 -7
-1 -7 5 0 7 5 12 10 12 6 0 1 13 -11 30 -18 23 -20 32 -10 43 8 11 9 22 1 42
-6 15 -8 30 -5 35 3 4 -7 11 -21 14 -31 8 -74 49 -74 71 0 24 27 17 34 -9 5
-21 33 -43 42 -33 2 2 -4 19 -14 39 -14 30 -23 37 -52 40 -28 2 -36 8 -38 28
-2 13 -19 70 -38 126 -40 119 -40 125 -15 247 11 50 25 126 31 167 15 95 38
178 101 355 27 77 62 193 79 259 28 110 45 156 55 156 2 0 23 -26 46 -57 23
-32 79 -96 123 -143 219 -229 288 -328 341 -484 42 -122 89 -199 175 -287 47
-47 121 -112 165 -144 104 -74 176 -144 233 -225 25 -36 67 -88 92 -115 46
-49 47 -53 59 -144 10 -77 9 -97 -1 -107 -17 -16 -129 -53 -303 -99 -77 -20
-148 -39 -157 -42 -26 -6 -22 -20 10 -37 15 -8 35 -23 45 -34 18 -20 18 -21
-29 -41 -81 -36 -114 -36 -154 -1 -28 25 -31 30 -12 25 17 -5 22 -2 22 13 0
17 -4 18 -50 8 -39 -8 -50 -14 -50 -29 0 -32 20 -57 68 -88 73 -46 113 -42
362 37 47 14 101 30 120 35 199 51 261 64 277 58 10 -4 31 -26 46 -48 26 -40
79 -81 103 -81 6 0 28 11 48 25 20 14 49 25 64 25 15 0 56 14 90 30 35 17 74
30 85 30 12 0 40 11 62 25 31 19 54 24 104 25 60 0 66 2 97 35 30 32 38 35 68
30 74 -14 139 48 138 131 -1 34 2 42 13 37 22 -8 19 33 -3 55 -10 10 -24 33
-32 52 -37 90 -145 160 -247 160 -38 0 -55 7 -97 38 -63 48 -89 57 -196 72
-98 13 -136 25 -167 53 -28 25 -85 121 -156 262 -30 61 -73 142 -95 180 -23
39 -49 86 -58 105 -43 89 -82 178 -94 214 -32 98 -113 206 -201 268 -68 47
-121 121 -194 269 -49 100 -154 266 -186 295 -12 10 -27 31 -35 46 -13 26 -13
28 24 55 221 164 469 422 605 631 81 124 85 132 56 105 -21 -19 -32 -21 -84
-17 -67 6 -81 18 -59 52 8 12 12 27 8 33 -4 7 5 10 22 8 16 -1 37 -1 46 -1 17
2 17 3 1 22 -10 11 -25 20 -34 20 -9 0 -22 7 -29 15 -9 11 -16 12 -25 5 -20
-17 -28 6 -9 24 8 9 23 16 32 16 9 0 30 7 46 15 20 11 33 12 40 5 16 -16 44
-12 59 10 13 19 16 19 30 5 21 -21 34 -19 40 6 5 19 8 20 20 8 7 -8 16 -20 18
-28 6 -17 107 194 160 334 56 151 114 381 140 565 29 203 31 540 5 735 -107
791 -512 1464 -1153 1916 -418 295 -887 459 -1418 499 -134 9 -192 10 -315 3z
m110 -3038 c-42 -12 -60 -23 -60 -36 0 -6 7 -6 19 1 25 13 118 13 126 0 3 -5
-3 -10 -14 -10 -26 0 -28 -17 -3 -23 10 -3 6 -5 -10 -6 -16 0 -28 4 -28 9 0 6
-9 10 -19 10 -11 0 -23 -4 -26 -10 -3 -5 0 -10 8 -10 8 0 20 -7 27 -15 7 -8
19 -15 28 -15 21 0 104 -41 98 -48 -4 -3 2 -14 11 -25 10 -11 14 -18 8 -16
-38 17 -65 34 -65 41 0 5 -9 6 -21 3 -15 -5 -25 -1 -35 13 -18 25 -97 72 -122
72 -24 0 -53 31 -35 37 7 2 28 17 48 33 33 26 39 28 68 17 l32 -11 -35 -11z
m-283 -81 c-3 -3 -12 -4 -19 -1 -8 3 -5 6 6 6 11 1 17 -2 13 -5z m148 -4 c-3
-5 -11 -10 -16 -10 -6 0 -7 5 -4 10 3 6 11 10 16 10 6 0 7 -4 4 -10z m-220
-41 c4 -5 0 -18 -7 -27 -9 -10 -12 -25 -8 -37 4 -11 10 -30 15 -43 6 -18 10
-20 21 -11 11 9 18 8 29 -1 12 -10 18 -10 30 0 26 21 18 -8 -10 -35 -27 -28
-45 -32 -45 -10 0 17 -25 20 -35 5 -8 -12 -35 -13 -54 -1 -10 7 -11 13 -2 30
10 17 9 21 -3 21 -8 0 -18 -4 -21 -10 -3 -5 -11 -10 -17 -10 -5 0 -2 13 9 29
72 113 84 124 98 100z m455 -112 c16 -12 31 -27 34 -34 6 -13 -80 43 -90 59
-11 17 22 2 56 -25z m-310 -57 c0 -5 -4 -10 -10 -10 -5 0 -10 5 -10 10 0 6 5
10 10 10 6 0 10 -4 10 -10z m208 -533 c20 -13 66 -38 102 -56 63 -32 83 -48
75 -61 -2 -4 12 -14 31 -23 23 -11 34 -23 32 -35 -3 -15 10 -18 102 -23 117
-7 142 -14 138 -38 -2 -12 4 -15 27 -13 17 2 48 -6 69 -16 32 -16 47 -17 80
-10 54 13 155 4 174 -16 14 -13 10 -14 -31 -11 -84 7 -50 -13 44 -26 50 -6 97
-18 104 -26 8 -7 20 -13 27 -13 17 0 50 -38 44 -49 -3 -4 0 -16 7 -25 9 -12
31 -18 77 -20 58 -3 76 -10 150 -54 105 -62 129 -86 180 -187 22 -44 52 -98
65 -120 14 -22 24 -47 24 -55 0 -10 -2 -11 -6 -2 -2 6 -11 12 -19 12 -9 0 -12
5 -8 12 4 7 3 8 -4 4 -8 -5 -8 -15 -2 -32 14 -35 12 -71 -2 -80 -6 -4 -13 -3
-15 3 -2 6 -17 -2 -33 -17 -33 -31 -37 -40 -17 -40 20 -1 105 -67 117 -92 10
-21 10 -21 -3 -5 -8 9 -20 17 -28 16 -10 0 -11 -2 -1 -6 6 -2 12 -11 12 -18 0
-8 6 -18 13 -22 7 -4 21 -27 31 -49 13 -31 23 -40 36 -37 10 3 20 -2 24 -13 5
-14 4 -15 -8 -5 -8 7 -17 8 -20 3 -3 -5 10 -16 29 -25 20 -10 35 -24 35 -34 0
-15 2 -16 10 -3 8 12 10 11 10 -7 0 -13 5 -23 11 -23 5 0 7 -4 4 -10 -10 -16
-29 -12 -53 10 -29 27 -33 25 -25 -10 4 -25 3 -29 -10 -24 -12 4 -15 -4 -15
-45 -1 -56 -5 -54 83 -55 45 -1 50 -3 54 -26 1 -14 13 -38 24 -55 12 -16 20
-38 19 -48 -2 -10 1 -24 6 -30 5 -7 12 -23 15 -35 5 -23 5 -23 -14 -6 -24 22
-25 4 0 -24 11 -14 30 -22 48 -22 17 0 54 -13 84 -29 30 -16 66 -29 81 -29 34
1 67 -20 137 -86 67 -63 113 -134 134 -205 19 -65 14 -80 -16 -46 -15 17 -26
22 -36 16 -16 -10 -6 -32 48 -106 21 -27 44 -63 52 -80 9 -16 48 -92 87 -167
75 -143 79 -154 61 -142 -7 4 -10 1 -7 -6 2 -8 14 -14 27 -15 19 -2 21 2 16
27 -15 83 -16 93 -6 78 6 -8 18 -40 27 -70 9 -30 20 -60 25 -66 7 -8 -1 -8
-31 -1 -21 6 -42 8 -46 5 -6 -6 24 -53 59 -92 9 -11 17 -23 17 -27 0 -4 11
-10 25 -13 30 -8 31 -17 5 -41 -19 -18 -19 -18 1 -46 11 -16 29 -29 39 -29 10
0 22 -4 25 -10 3 -5 16 -10 28 -11 19 0 19 -2 -5 -11 -18 -6 -28 -17 -28 -30
0 -18 -1 -18 -16 -4 -9 9 -25 14 -37 11 -12 -3 -31 2 -42 10 -17 14 -18 17 -5
25 12 8 11 10 -6 10 -28 0 -74 37 -74 59 0 10 -32 46 -70 80 -39 35 -68 67
-65 71 3 5 22 12 43 16 20 4 48 14 61 22 22 15 22 16 5 29 -27 20 -54 16 -54
-7 0 -11 -4 -20 -9 -20 -5 0 -11 9 -14 20 -3 12 -14 20 -25 20 -12 0 -24 5
-28 11 -4 7 -24 9 -55 5 -51 -7 -60 -2 -32 19 15 11 13 14 -24 25 -42 13 -123
78 -123 100 0 6 -22 58 -50 116 -27 58 -53 117 -56 132 -10 38 -32 57 -126
103 -46 23 -95 52 -109 66 -14 13 -30 23 -35 22 -27 -5 -54 3 -54 15 0 10 18
17 57 22 52 6 55 8 37 21 -10 7 -28 13 -39 12 -65 -5 -74 16 -20 45 29 16 33
22 24 37 -12 23 -25 24 -62 4 -37 -19 -56 -10 -55 27 1 16 -3 33 -8 36 -22 17
-44 74 -44 116 0 35 -4 48 -17 53 -10 3 -28 15 -39 25 -21 19 -22 19 -42 -6
-25 -32 -36 -33 -30 -2 4 18 -2 27 -28 41 -19 10 -36 26 -39 36 -4 10 -12 16
-20 13 -9 -4 -19 4 -26 23 -31 78 -55 129 -62 134 -5 4 -10 18 -10 32 -1 14
-5 23 -9 21 -12 -8 -28 32 -17 43 11 11 -30 101 -55 122 -23 20 -20 -3 4 -24
11 -10 20 -24 20 -32 0 -7 -9 -13 -20 -13 -15 0 -20 7 -21 28 -1 15 -3 38 -6
52 -2 14 -5 36 -6 50 -2 14 -7 42 -11 62 -7 34 -4 43 28 87 20 27 36 51 36 54
0 3 -18 1 -41 -4 -22 -5 -55 -9 -72 -7 -36 2 -78 -22 -101 -57 -15 -22 -14
-24 20 -37 l36 -14 -37 -30 c-47 -37 -125 -116 -125 -127 0 -4 29 -22 65 -38
72 -34 82 -44 66 -63 -6 -7 -8 -16 -5 -19 8 -8 -57 -47 -78 -47 -10 0 -18 -6
-18 -14 0 -23 -41 -31 -55 -12 -7 9 -18 16 -25 16 -10 0 -10 -4 1 -17 24 -29
43 -72 35 -80 -7 -8 -30 16 -67 68 -24 35 -39 15 -39 -52 0 -33 -4 -59 -10
-59 -5 0 -10 -10 -10 -21 0 -18 -4 -20 -22 -14 -47 15 -74 15 -92 0 -18 -14
-18 -15 14 -45 17 -16 36 -30 41 -30 5 0 9 -5 9 -11 0 -13 -39 -2 -62 19 -20
17 -25 3 -6 -16 17 -17 -20 -15 -52 3 -47 27 -56 15 -15 -20 39 -33 39 -35 20
-49 -14 -10 -21 -11 -24 -3 -10 27 -41 49 -61 44 -13 -3 -31 3 -49 19 -16 13
-33 24 -37 24 -5 0 -4 -4 2 -8 6 -4 14 -24 18 -44 7 -36 6 -38 -19 -38 -22 0
-25 -3 -20 -20 9 -27 -3 -44 -20 -30 -8 7 -23 9 -34 5 -20 -6 -61 -74 -61
-100 0 -8 -10 -26 -23 -41 -19 -22 -27 -25 -44 -16 -17 10 -20 20 -18 86 2 63
7 82 29 116 22 34 26 50 26 114 0 54 4 79 16 90 8 9 12 20 9 26 -3 5 -1 10 6
10 8 0 9 -10 5 -31 -13 -64 22 -103 70 -76 13 7 21 5 31 -9 7 -10 13 -14 13
-8 0 5 -7 18 -15 28 -8 11 -13 28 -9 38 3 9 -1 28 -8 40 -7 13 -11 27 -10 32
2 4 -4 13 -11 20 -21 17 -28 56 -11 63 8 3 14 18 14 35 0 16 4 27 9 23 11 -6
45 27 69 68 9 15 20 27 24 27 4 0 8 13 8 30 0 16 11 59 25 95 16 44 20 65 12
65 -7 0 -4 7 6 14 16 12 17 18 6 38 -20 39 -55 53 -44 18 6 -19 -16 -73 -35
-85 -6 -4 -17 -1 -25 5 -20 17 -57 -44 -53 -87 2 -17 0 -31 -5 -30 -5 1 -16
-9 -25 -23 -16 -24 -16 -24 1 -11 10 8 20 11 23 8 6 -6 -42 -108 -55 -117 -4
-3 -26 -34 -49 -69 -49 -75 -47 -82 -32 124 11 149 25 229 44 245 15 11 20 79
20 285 1 118 -21 235 -43 235 -11 0 -21 -75 -21 -141 1 -36 -5 -54 -26 -78
-14 -17 -24 -38 -20 -46 3 -8 -1 -18 -9 -22 -13 -7 -65 -78 -65 -88 0 -3 10
-5 22 -5 21 0 21 -1 -5 -28 -27 -28 -36 -62 -17 -62 5 0 17 12 27 28 9 15 27
37 39 49 19 19 23 20 28 6 5 -12 9 -13 20 -4 17 14 24 -1 20 -44 -1 -16 -3
-36 -3 -42 -1 -7 -7 -13 -15 -13 -8 0 -22 -22 -32 -50 -10 -27 -21 -50 -25
-50 -5 0 -22 -15 -38 -32 -17 -18 -40 -33 -52 -33 -21 0 -22 -5 -24 -83 -1
-85 5 -103 30 -82 8 7 15 7 19 1 8 -12 -23 -91 -35 -91 -5 0 -4 -8 3 -19 9
-15 7 -26 -10 -57 -12 -22 -27 -51 -33 -67 -7 -16 -21 -30 -37 -33 -31 -8 -62
-32 -62 -49 0 -6 11 -18 25 -25 14 -7 25 -17 25 -21 0 -4 -25 -28 -55 -54 -30
-27 -55 -55 -55 -64 0 -9 -12 -29 -26 -46 -23 -27 -25 -28 -21 -7 3 12 1 22
-4 22 -5 0 -9 -4 -9 -9 0 -13 -62 -23 -74 -11 -5 5 -16 10 -24 10 -8 0 -27 9
-43 20 l-28 21 35 46 c19 25 33 52 30 59 -7 19 14 29 26 13 8 -11 9 -10 4 3
-3 10 -1 20 4 23 6 4 10 -1 10 -9 0 -21 17 -20 45 2 23 18 23 19 3 31 -12 8
-24 9 -31 3 -7 -5 -31 -10 -53 -9 -50 0 -73 -11 -53 -25 10 -7 9 -8 -5 -4 -11
4 -35 -3 -60 -18 -33 -19 -54 -24 -107 -23 l-67 0 0 33 c0 28 4 33 32 37 76
13 119 26 126 37 9 15 -43 70 -67 70 -12 0 -13 3 -4 14 7 9 8 17 2 20 -5 3
-11 2 -13 -3 -1 -5 -31 -11 -65 -14 -60 -4 -63 -3 -63 18 0 26 54 97 87 115
12 7 27 26 34 43 14 32 62 67 95 67 11 0 29 9 39 20 15 16 16 24 7 45 -9 19
-8 27 4 40 9 8 21 15 27 15 6 0 2 10 -10 22 -20 19 -25 20 -50 9 -15 -8 -52
-16 -82 -20 -62 -7 -91 -34 -57 -55 51 -31 59 -42 48 -62 -6 -10 -12 -15 -12
-10 0 5 -9 1 -20 -9 -17 -16 -24 -16 -64 -4 -61 18 -131 90 -227 231 -52 77
-58 56 -30 -117 10 -61 7 -81 -9 -55 -7 11 -10 8 -15 -12 -4 -15 -4 -31 -1
-36 3 -5 -1 -18 -9 -28 -8 -10 -15 -35 -15 -54 0 -20 -12 -60 -28 -90 -31 -63
-77 -93 -129 -86 -18 3 -35 1 -38 -3 -2 -5 7 -36 20 -70 14 -33 25 -74 25 -90
0 -16 4 -32 9 -35 10 -7 3 -46 -8 -46 -4 0 -6 -31 -5 -70 2 -55 0 -70 -12 -70
-8 0 -14 9 -14 20 0 27 -14 25 -28 -4 -7 -16 -8 -36 -2 -56 11 -39 2 -90 -16
-90 -8 0 -14 -10 -14 -24 0 -13 -9 -34 -20 -47 -14 -17 -18 -19 -14 -6 4 10
-3 31 -17 52 -19 27 -31 35 -56 35 -66 0 -83 28 -39 69 25 23 82 128 74 136
-8 8 -73 -22 -88 -39 -15 -19 -41 -21 -59 -3 -10 10 -15 8 -27 -8 -8 -11 -12
-26 -9 -33 5 -15 -24 -72 -37 -72 -5 0 -3 -8 3 -18 9 -14 5 -30 -16 -75 -15
-31 -25 -64 -21 -72 9 -24 33 -18 40 10 7 28 60 60 79 48 7 -4 36 -8 64 -8 68
-1 88 -18 53 -45 -14 -11 -37 -20 -52 -20 -38 0 -36 -25 2 -45 17 -9 30 -20
30 -26 0 -13 -51 -88 -100 -149 -63 -77 -104 -140 -96 -147 4 -4 11 -1 15 6 5
7 14 10 20 7 6 -4 8 -12 5 -18 -4 -7 -2 -8 4 -4 6 4 8 14 5 24 -4 11 1 9 16
-7 16 -19 24 -22 33 -13 34 34 49 -1 23 -52 -8 -15 -15 -35 -15 -42 0 -27 -65
-113 -92 -123 -16 -5 -28 -14 -28 -20 0 -12 -60 -42 -71 -35 -5 3 -9 -1 -9
-10 0 -8 -12 -17 -27 -21 -16 -4 -46 -28 -68 -55 -23 -28 -58 -55 -82 -66 -24
-10 -43 -23 -43 -29 0 -5 -9 -16 -21 -23 -14 -9 -19 -20 -16 -34 4 -14 -4 -29
-24 -49 -19 -19 -27 -34 -22 -45 5 -13 3 -16 -10 -11 -13 5 -16 1 -15 -16 1
-31 -14 -65 -66 -142 -25 -38 -47 -76 -47 -84 -3 -45 -17 -71 -39 -71 -10 0
-23 -6 -29 -14 -17 -20 -51 -116 -42 -116 8 0 72 84 81 106 4 9 8 8 18 -2 7
-8 9 -14 3 -14 -9 0 -61 -81 -61 -95 0 -4 10 -5 23 -1 12 3 53 -2 90 -11 51
-12 71 -13 80 -4 18 18 47 13 47 -8 0 -11 4 -23 10 -26 6 -4 4 -17 -5 -35 -8
-16 -15 -36 -15 -45 0 -8 -4 -15 -10 -15 -5 0 -10 -15 -10 -33 0 -25 -9 -42
-38 -70 -35 -34 -42 -37 -78 -32 -36 6 -43 3 -92 -39 -30 -25 -58 -46 -62 -46
-16 0 -32 41 -26 64 7 29 -28 53 -50 35 -11 -9 -12 -14 -3 -19 8 -6 8 -9 0
-14 -6 -4 -11 -3 -11 3 0 6 -12 8 -30 5 -25 -6 -31 -3 -42 22 -7 16 -16 32
-21 35 -5 3 1 9 12 12 13 3 21 13 21 26 0 19 -2 20 -22 10 -13 -7 -29 -18 -36
-26 -30 -30 -92 -4 -78 33 3 9 20 21 36 27 30 11 39 30 20 42 -5 3 -10 17 -10
31 0 13 -5 24 -12 24 -19 0 -58 -42 -58 -62 0 -27 -26 -33 -71 -15 -21 8 -39
11 -39 6 0 -5 -4 -9 -10 -9 -14 0 -12 47 3 60 6 6 41 29 77 51 36 23 76 51 90
64 14 13 60 38 102 55 70 29 79 31 93 17 8 -9 15 -23 15 -31 0 -9 3 -16 8 -16
10 1 79 112 102 163 9 23 29 68 44 99 14 31 26 60 26 65 0 4 22 53 49 108 52
106 101 230 101 256 0 22 11 30 26 18 19 -16 24 4 12 44 -8 27 -8 43 0 62 8
16 8 25 1 25 -5 0 -17 -16 -25 -35 -38 -92 -47 -109 -51 -97 -3 6 2 40 10 75
8 34 21 89 28 122 7 33 25 78 40 100 29 45 52 122 37 127 -5 2 0 24 11 48 11
25 21 50 21 56 0 6 20 42 45 80 25 37 45 73 45 79 0 6 12 22 26 36 28 26 64
89 64 113 0 8 15 63 34 123 19 59 60 193 91 296 30 104 63 200 72 213 13 20
15 46 11 152 -6 135 6 201 54 317 27 62 42 82 125 167 71 73 140 108 213 108
22 0 65 11 96 25 31 14 62 25 69 25 6 0 22 12 36 26 35 38 110 73 211 98 67
17 97 31 121 53 48 46 101 68 211 87 129 22 137 27 126 67 -9 29 -5 36 48 96
31 36 56 69 55 74 -4 14 4 11 45 -14z m955 -1399 c-10 -11 -19 -15 -21 -8 -5
15 18 41 30 34 5 -3 1 -15 -9 -26z m239 10 c-2 -10 -8 -15 -13 -12 -14 8 -11
31 5 31 8 0 11 -8 8 -19z m-1212 -162 c-10 -30 -25 -65 -33 -78 -8 -12 -17
-35 -21 -50 -3 -15 -24 -45 -46 -67 -28 -27 -42 -52 -50 -87 -6 -27 -16 -57
-21 -66 -5 -10 -9 -25 -9 -33 0 -8 -7 -15 -15 -15 -8 0 -15 -6 -15 -14 0 -8
-12 -24 -26 -35 -42 -33 -89 -24 -49 9 9 7 22 29 31 49 9 20 21 47 27 61 6 14
35 61 64 106 29 44 53 87 53 96 0 9 7 21 15 28 8 7 15 23 15 36 0 12 5 26 12
30 7 5 9 2 4 -7 -5 -9 -3 -8 6 2 7 8 21 18 30 22 12 4 15 12 11 23 -5 14 18
44 33 44 2 0 -5 -24 -16 -54z m-1060 -118 c0 -19 -2 -20 -10 -8 -13 19 -13 30
0 30 6 0 10 -10 10 -22z m64 -96 c-3 -17 -17 -40 -30 -53 l-23 -22 -7 27 c-5
22 -1 32 27 56 18 17 34 28 36 27 2 -2 0 -18 -3 -35z m1606 -92 c0 -18 -3 -19
-20 -10 -11 6 -20 15 -20 20 0 6 9 10 20 10 13 0 20 -7 20 -20z m-390 -54 c0
-7 -7 -19 -15 -26 -12 -10 -15 -9 -15 5 0 14 -3 15 -15 5 -19 -15 -28 -9 -19
14 8 20 64 22 64 2z m1370 -56 c0 -24 -21 -7 -40 33 l-21 42 30 -33 c17 -18
31 -37 31 -42z m-1043 -10 c15 -45 -1 -60 -59 -54 -73 7 -89 39 -35 73 47 31
79 24 94 -19z m-1472 -60 c14 -43 32 -126 40 -183 18 -138 35 -225 51 -262 7
-16 14 -37 16 -45 2 -8 11 -21 22 -30 32 -28 40 -210 11 -239 -16 -15 -17 -14
-12 6 6 27 -6 38 -21 20 -5 -6 -17 -36 -27 -65 -12 -37 -22 -52 -33 -51 -32 3
-36 -1 -17 -15 19 -14 18 -15 -15 -33 -50 -26 -100 -80 -100 -109 0 -13 -3
-23 -7 -22 -5 1 -19 -4 -31 -11 -31 -17 -40 -6 -17 19 10 11 15 23 11 28 -10
9 -58 -47 -53 -61 2 -6 23 -16 47 -22 47 -12 66 -40 55 -85 -14 -61 -90 -192
-131 -229 -39 -34 -58 -71 -36 -71 5 0 18 -14 31 -30 l22 -31 -32 -85 c-28
-74 -52 -115 -100 -172 -123 -147 -124 -147 -142 -236 -12 -60 -12 -70 2 -89
33 -44 42 -72 37 -117 -3 -25 -5 -48 -5 -52 -2 -16 -19 -7 -24 12 -3 11 -2 20
1 20 16 0 6 79 -13 100 -23 26 -74 50 -106 50 -22 0 -79 -36 -79 -50 0 -18 30
-18 54 1 34 27 43 7 14 -31 -13 -16 -26 -29 -31 -29 -12 -1 -87 51 -87 60 0
12 52 58 73 65 9 3 17 11 16 17 0 12 -22 24 -204 114 -128 64 -129 65 -89 133
18 30 35 75 39 100 12 74 36 164 50 180 6 8 29 62 50 120 23 63 61 141 95 195
32 50 83 134 114 188 31 53 87 143 124 200 92 137 97 146 122 267 36 166 77
269 171 425 26 44 60 110 75 148 14 37 30 67 34 67 5 0 20 -36 35 -80z m498 3
c5 -25 3 -31 -8 -27 -20 8 -27 34 -14 51 14 16 15 16 22 -24z m772 -33 c15 0
14 -71 -1 -87 -9 -9 -18 -5 -38 16 -31 32 -31 39 -8 87 l17 37 9 -26 c6 -15
15 -27 21 -27z m-725 20 c0 -5 -2 -10 -4 -10 -3 0 -8 5 -11 10 -3 6 -1 10 4
10 6 0 11 -4 11 -10z m2061 -106 c12 -14 11 -16 -5 -13 -11 2 -21 10 -24 17
-5 17 13 15 29 -4z m44 -14 c3 -5 -1 -10 -9 -10 -9 0 -16 5 -16 10 0 6 4 10 9
10 6 0 13 -4 16 -10z m80 -27 c6 -15 20 -23 44 -25 33 -3 35 -6 56 -68 35
-103 39 -138 18 -143 -28 -8 -120 -17 -105 -11 6 3 12 13 12 22 0 25 -59 124
-70 117 -17 -10 -21 40 -11 128 2 17 46 1 56 -20z m51 13 c10 -8 16 -18 12
-22 -10 -9 -58 12 -58 26 0 14 23 12 46 -4z m-152 -52 c4 -15 2 -32 -3 -37 -8
-8 -11 -7 -11 4 0 7 -3 24 -6 37 -4 12 -2 22 4 22 5 0 13 -12 16 -26z m-3104
-123 c0 -5 -7 -12 -16 -15 -14 -5 -15 -4 -4 9 14 17 20 19 20 6z m604 -33 c29
-57 12 -82 -21 -31 -12 18 -14 28 -6 30 7 3 9 11 6 19 -10 27 6 14 21 -18z
m2830 -194 c3 -8 2 -12 -4 -9 -6 3 -10 10 -10 16 0 14 7 11 14 -7z m145 -50
c26 -44 23 -51 -11 -24 -18 14 -35 18 -55 14 -21 -4 -33 0 -48 16 l-20 22 36
-7 c23 -4 39 -3 43 4 13 21 34 11 55 -25z m-3668 -187 c-19 -19 -24 1 -10 35
l14 33 3 -29 c2 -16 -1 -33 -7 -39z m3754 53 c3 -5 1 -10 -4 -10 -6 0 -11 5
-11 10 0 6 2 10 4 10 3 0 8 -4 11 -10z m-3805 -81 c0 -7 -12 -22 -27 -35 -16
-13 -28 -30 -28 -36 0 -7 -9 -14 -19 -16 -25 -5 -52 -38 -65 -82 -13 -42 -58
-94 -89 -104 -16 -6 -21 -13 -17 -26 4 -14 0 -19 -17 -22 -19 -2 -25 -12 -33
-58 -5 -30 -14 -61 -18 -67 -10 -15 -31 -18 -22 -3 3 6 10 31 15 58 18 105 80
230 133 273 14 10 28 29 31 41 7 28 48 59 82 63 14 1 30 7 37 14 14 14 37 14
37 0z m4400 -49 c-12 -8 -9 -10 13 -10 15 0 27 -4 27 -9 0 -5 14 -11 30 -13
36 -5 35 13 -1 23 -22 6 -21 7 8 8 17 1 38 -5 45 -11 7 -7 40 -31 73 -53 73
-49 118 -93 109 -107 -4 -7 -14 -2 -25 13 l-19 24 -28 -33 c-19 -23 -38 -34
-67 -38 -28 -4 -48 -16 -66 -36 -22 -26 -29 -29 -47 -19 -38 20 -60 13 -88
-30 -22 -35 -29 -40 -50 -35 -17 5 -37 0 -60 -15 l-35 -21 -39 44 c-28 30 -40
38 -40 25 0 -11 -8 -17 -21 -17 -17 0 -19 -3 -10 -14 15 -18 -2 -24 -49 -16
-31 4 -36 10 -45 44 -7 31 -5 45 11 75 l19 36 85 1 c117 2 160 15 160 50 0 8
5 14 10 14 6 0 10 5 10 11 0 7 -15 10 -39 7 -37 -3 -39 -2 -25 13 9 10 26 20
39 23 18 5 22 11 18 28 -3 13 -10 29 -16 36 -7 9 6 12 59 12 48 0 64 -3 54
-10z m-225 -127 c0 -21 -5 -39 -10 -41 -11 -3 -19 43 -11 64 10 27 22 14 21
-23z m-135 -17 c0 -8 -5 -18 -11 -22 -14 -8 -33 11 -25 25 10 16 36 13 36 -3z
m667 -98 c-3 -8 -6 -5 -6 6 -1 11 2 17 5 13 3 -3 4 -12 1 -19z m-2246 -24 c9
-8 26 -13 39 -12 12 2 25 -3 27 -9 6 -18 -29 -16 -53 2 -10 8 -39 15 -64 15
-25 0 -51 4 -59 9 -16 10 -54 -7 -112 -51 -20 -16 -45 -28 -57 -28 -21 0 -62
-35 -62 -52 0 -5 9 -4 21 2 11 7 24 8 27 4 4 -4 1 -9 -6 -12 -8 -2 -29 -17
-47 -33 -18 -16 -39 -29 -47 -29 -7 0 -24 -7 -37 -16 -17 -12 -20 -19 -11 -28
8 -8 13 -7 19 3 5 7 14 10 20 7 8 -5 7 -11 -3 -21 -8 -8 -12 -24 -9 -35 4 -16
12 -19 39 -17 18 3 40 10 48 16 8 7 27 14 43 17 l28 5 -35 -26 c-58 -43 -86
-55 -119 -49 -21 5 -38 0 -59 -15 -17 -11 -42 -21 -55 -21 -15 0 -32 -9 -41
-21 -16 -23 -111 -60 -133 -52 -20 8 -6 20 32 27 51 10 43 25 -17 28 l-52 3
41 27 c23 15 54 30 70 34 15 4 37 17 49 29 11 12 28 26 37 32 10 5 15 16 12
24 -6 16 -82 14 -99 -2 -6 -5 -17 -9 -25 -9 -10 0 -8 7 9 25 l23 25 -35 0
c-19 0 -49 -5 -66 -11 -17 -6 -45 -9 -64 -7 -33 4 -33 4 -8 15 14 6 54 19 90
29 69 19 96 40 78 61 -11 14 -32 7 -23 -8 4 -5 1 -9 -4 -9 -6 0 -11 4 -11 10
0 15 -73 25 -218 28 -99 3 -66 23 36 23 185 -1 354 22 468 63 43 16 72 22 79
16 6 -5 21 -7 33 -3 13 3 22 1 22 -6 0 -6 -6 -11 -12 -11 -7 0 -26 -9 -43 -20
l-30 -20 33 4 c18 2 42 12 53 22 45 41 90 54 159 48 36 -4 72 -13 81 -20z
m-1471 -14 c18 -12 2 -12 -25 0 -13 6 -15 9 -5 9 8 0 22 -4 30 -9z m-405 -10
c-3 -5 -10 -10 -16 -10 -5 0 -9 5 -9 10 0 6 7 10 16 10 8 0 12 -4 9 -10z m510
-11 l50 -19 -53 5 c-60 7 -82 13 -82 26 0 14 30 10 85 -12z m105 -16 c0 -5 24
-9 53 -11 28 -1 68 -7 87 -12 26 -7 19 -8 -30 -3 -36 4 -77 8 -92 9 -16 1 -35
2 -44 3 -8 0 -12 6 -9 11 7 12 35 14 35 3z m250 -33 c0 -5 -11 -10 -24 -10
-14 0 -28 5 -31 10 -4 6 7 10 24 10 17 0 31 -4 31 -10z m1150 0 c0 -5 -4 -10
-9 -10 -6 0 -13 5 -16 10 -3 6 1 10 9 10 9 0 16 -4 16 -10z m-3035 -9 c3 -5 1
-12 -5 -16 -5 -3 -10 1 -10 9 0 18 6 21 15 7z m-36 -61 c-10 -7 -10 -12 0 -23
8 -10 9 -17 1 -22 -5 -3 -10 1 -10 9 0 9 -5 16 -10 16 -6 0 -3 12 7 26 10 17
19 22 21 14 3 -7 -1 -16 -9 -20z m991 -51 c0 -6 -8 -21 -18 -34 -30 -38 -21
-109 17 -140 16 -14 32 -34 36 -44 3 -10 17 -24 30 -31 32 -17 32 -32 0 -20
-19 7 -23 6 -18 -5 3 -8 0 -15 -6 -15 -7 0 -14 7 -17 15 -4 9 -19 15 -39 15
-28 0 -35 -5 -50 -37 -10 -21 -22 -46 -27 -56 -5 -9 -5 -17 -1 -16 25 4 36 -3
16 -11 -15 -6 -20 -15 -16 -28 3 -12 -1 -22 -11 -25 -10 -4 -16 -19 -16 -41 0
-41 -9 -49 -33 -31 -15 11 -17 17 -7 35 6 12 9 24 6 27 -9 9 -36 -18 -53 -51
-38 -76 -89 -156 -100 -156 -16 0 -16 3 1 45 21 50 91 149 136 194 22 22 49
60 59 84 11 25 29 53 40 64 17 16 19 24 11 52 -5 18 -17 39 -27 47 -17 13 -16
14 20 18 11 1 13 8 9 36 -1 6 -9 10 -17 10 -19 0 -19 2 6 44 11 19 18 40 14
46 -3 5 0 7 8 4 8 -3 18 -1 22 5 8 14 25 14 25 0z m939 -5 c2 -2 -12 -4 -33
-4 -22 0 -35 4 -31 10 5 9 52 4 64 -6z m2531 6 c0 -12 -28 -25 -36 -17 -9 9 6
27 22 27 8 0 14 -5 14 -10z m-4252 -51 c-24 -16 -29 -9 -11 15 14 19 19 21 21
9 2 -9 -2 -19 -10 -24z m4167 20 c0 -8 -10 -15 -22 -17 -25 -4 -33 22 -10 31
18 8 32 2 32 -14z m-85 -29 c0 -15 -7 -20 -25 -20 -24 0 -34 18 -18 33 15 15
43 7 43 -13z m-1564 -15 c-27 -21 -53 -20 -36 0 7 8 22 15 34 15 21 -1 21 -1
2 -15z m1464 -15 c-12 -23 -30 -27 -30 -7 0 17 10 27 27 27 11 0 11 -5 3 -20z
m-98 -25 c0 -5 -5 -11 -11 -13 -6 -2 -11 4 -11 13 0 9 5 15 11 13 6 -2 11 -8
11 -13z m-1264 -108 c15 -12 12 -28 -13 -96 -8 -24 -13 -52 -9 -63 5 -16 2
-19 -13 -16 -13 2 -17 11 -16 30 2 32 -20 43 -50 26 -20 -11 -20 -13 -4 -16
16 -3 35 -53 29 -74 -1 -5 6 -8 16 -8 13 0 14 -2 3 -9 -9 -6 -10 -10 -2 -16 8
-4 9 -11 2 -18 -5 -7 -12 -29 -16 -49 -4 -22 -13 -38 -21 -38 -10 0 -11 -6 -4
-24 6 -17 5 -26 -3 -29 -15 -5 15 -37 35 -37 14 -1 -15 -20 -35 -25 -7 -1 -19
-5 -27 -8 -8 -3 -52 -15 -97 -27 -45 -11 -94 -25 -108 -30 -16 -6 -25 -6 -25
0 0 6 5 10 10 10 6 0 10 4 10 10 0 5 -16 0 -35 -11 -19 -11 -42 -22 -51 -23
-8 -1 -19 -8 -24 -16 -5 -7 -15 -10 -25 -6 -10 3 -23 2 -29 -2 -20 -16 -92
-29 -114 -21 -12 5 -29 6 -37 3 -8 -4 -15 -2 -15 3 0 5 -18 28 -41 52 -45 49
-71 55 -131 28 -48 -22 -50 -6 -3 22 32 19 48 51 25 51 -5 0 -10 6 -10 13 0 8
-11 19 -25 25 -26 12 -33 38 -12 45 6 2 -1 3 -18 1 l-30 -4 34 21 c24 15 36
17 41 9 5 -8 9 -7 13 3 7 18 100 63 145 70 18 3 44 13 57 21 14 9 50 26 82 37
32 12 63 26 68 32 7 7 4 8 -9 3 -16 -5 -17 -4 -6 9 7 8 19 15 27 15 7 0 16 7
19 15 8 19 71 58 83 51 4 -3 19 3 31 14 27 23 74 37 185 55 83 14 120 11 143
-8z m-1022 -41 c15 -16 18 -26 6 -26 -4 0 -13 9 -20 20 -14 23 -7 26 14 6z
m1374 -30 c0 -3 -4 -8 -10 -11 -5 -3 -10 -1 -10 4 0 6 5 11 10 11 6 0 10 -2
10 -4z m55 -176 c-3 -5 -11 -10 -16 -10 -6 0 -7 5 -4 10 3 6 11 10 16 10 6 0
7 -4 4 -10z m-2358 -82 c-3 -8 -6 -5 -6 6 -1 11 2 17 5 13 3 -3 4 -12 1 -19z
m2323 -138 c0 -5 -2 -10 -4 -10 -3 0 -8 5 -11 10 -3 6 -1 10 4 10 6 0 11 -4
11 -10z m-2930 -10 c-19 -13 -30 -13 -30 0 0 6 10 10 23 10 18 0 19 -2 7 -10z
m110 -40 c0 -5 -5 -10 -11 -10 -5 0 -7 5 -4 10 3 6 8 10 11 10 2 0 4 -4 4 -10z
m196 -82 c4 -7 3 -10 -1 -5 -5 4 -19 -3 -32 -15 -13 -12 -23 -17 -23 -11 0 6
10 18 23 26 27 20 24 19 33 5z m2099 -118 c-3 -5 -12 -7 -20 -3 -21 7 -19 13
6 13 11 0 18 -4 14 -10z m-30 -20 c3 -5 -1 -10 -9 -10 -8 0 -18 5 -21 10 -3 6
1 10 9 10 8 0 18 -4 21 -10z m-35 -20 c8 -5 11 -10 5 -10 -5 0 -17 5 -25 10
-8 5 -10 10 -5 10 6 0 17 -5 25 -10z m745 -90 c3 -5 1 -10 -4 -10 -6 0 -11 5
-11 10 0 6 2 10 4 10 3 0 8 -4 11 -10z m-325 -137 c0 -8 -7 -21 -15 -30 -9 -9
-13 -23 -9 -35 5 -18 4 -18 -18 -6 -33 19 -39 29 -32 62 5 21 3 27 -6 21 -9
-5 -11 -4 -6 4 4 6 11 9 16 6 4 -3 13 2 20 10 11 14 15 14 31 -1 11 -10 19
-23 19 -31z m309 -125 c-12 -48 -55 -106 -68 -92 -3 3 -1 8 5 12 15 9 54 91
54 112 0 9 3 20 7 23 14 15 15 -4 2 -55z m151 -83 c18 -36 40 -67 51 -70 10
-4 17 -11 13 -16 -3 -6 1 -21 10 -34 9 -13 16 -33 16 -44 0 -11 5 -23 10 -26
6 -3 10 -20 10 -37 0 -22 4 -29 14 -25 9 4 16 -4 19 -22 5 -24 10 -28 33 -23
26 5 26 4 23 -47 -3 -41 -1 -52 13 -57 30 -9 71 -155 52 -186 -5 -7 -7 -22 -6
-33 3 -25 -35 -88 -48 -80 -6 3 -11 0 -11 -7 -1 -12 -12 27 -26 95 -6 31 -19
36 -26 10 -3 -10 -5 -3 -6 15 -2 62 -33 29 -46 -49 -3 -23 -18 -49 -40 -70
-19 -19 -37 -44 -40 -57 -3 -14 -19 -29 -38 -37 -18 -7 -39 -26 -47 -42 -16
-29 -67 -81 -171 -173 -35 -30 -79 -70 -98 -87 -38 -37 -51 -41 -51 -17 0 10
6 14 15 10 8 -3 15 0 15 7 1 7 18 26 38 44 20 17 70 59 110 93 63 54 71 64 60
78 -11 13 -11 15 3 10 26 -10 37 5 43 57 4 27 9 58 12 67 4 13 1 16 -10 12
-23 -9 -20 0 20 73 36 66 40 92 7 53 -36 -44 -42 -47 -70 -42 -17 3 -22 7 -13
10 21 7 34 31 37 70 1 18 11 45 22 61 11 15 18 31 15 34 -8 7 27 107 37 107 5
0 9 7 9 16 0 8 4 13 9 10 5 -4 11 0 14 6 2 7 7 10 11 7 3 -3 -1 -20 -10 -37
-14 -29 -14 -33 0 -48 20 -19 20 -30 1 -84 -19 -54 -19 -60 1 -60 13 0 14 -3
5 -14 -8 -9 -8 -16 -2 -20 16 -10 25 54 24 173 -1 79 -5 116 -14 122 -9 5 -10
11 -2 21 7 9 8 32 2 73 -5 33 -11 84 -13 113 -2 29 -14 72 -27 96 -13 25 -20
50 -16 60 10 25 22 13 57 -59z m-294 33 c-4 -13 -8 -35 -9 -49 -3 -28 -35 -84
-44 -76 -2 3 2 18 10 34 8 15 18 44 22 63 8 38 13 50 22 50 3 0 2 -10 -1 -22z
m115 -243 c31 7 29 12 34 -77 1 -18 7 -34 14 -36 6 -2 11 -8 11 -14 0 -6 -7
-8 -15 -4 -18 7 -18 7 -4 -33 11 -32 10 -35 -33 -75 -39 -38 -51 -43 -106 -49
-57 -6 -62 -5 -62 13 0 11 -5 20 -11 20 -8 0 -8 4 1 14 6 8 10 25 9 38 -2 13
0 29 4 36 11 17 -1 15 -20 -3 -30 -30 -25 -6 13 61 21 38 59 88 84 112 l45 44
3 -27 c3 -23 7 -26 33 -20z m-3186 -35 c8 -13 -14 -42 -25 -35 -10 6 -1 45 11
45 4 0 11 -5 14 -10z m442 -37 c3 -10 15 -26 25 -36 17 -17 18 -21 5 -35 -8
-10 -19 -44 -25 -77 -17 -93 -35 -159 -46 -167 -6 -4 -3 -14 8 -27 18 -19 18
-22 2 -46 -25 -38 -44 -31 -70 25 -26 55 -53 90 -70 90 -6 0 -22 -9 -36 -20
-29 -22 -130 -29 -130 -8 0 6 -2 9 -5 7 -8 -8 7 -49 16 -43 5 3 9 -1 8 -8 -1
-25 -14 -43 -33 -46 -15 -3 -17 1 -12 22 4 17 0 36 -14 58 -15 24 -16 34 -7
41 9 7 9 10 0 14 -16 6 -17 63 -2 63 6 0 13 -9 16 -20 3 -11 12 -20 20 -20 7
0 23 -16 34 -35 28 -46 50 -44 73 7 10 22 32 48 47 57 31 17 37 36 16 44 -18
7 -39 79 -27 91 15 15 12 29 -5 22 -30 -11 -14 3 21 20 37 18 37 18 58 -9 17
-21 27 -25 50 -21 42 7 46 12 46 45 0 33 26 41 37 12z m-431 -69 c17 -40 11
-56 -11 -33 -17 17 -28 69 -14 69 6 0 17 -16 25 -36z m638 -46 c-4 -7 -16 -19
-27 -27 -14 -10 -17 -21 -14 -40 7 -31 -6 -57 -22 -47 -15 9 -14 67 2 87 22
29 76 52 61 27z m119 -61 c-22 -48 -38 -97 -48 -147 -4 -19 -17 -51 -28 -72
-21 -36 -21 -36 -77 -31 -55 6 -103 24 -115 44 -13 20 6 23 39 5 18 -10 44
-16 57 -14 24 3 29 10 78 119 11 25 30 54 41 64 11 10 20 28 20 41 0 24 42 62
48 44 2 -6 -5 -29 -15 -53z m-513 3 c0 -5 -4 -10 -9 -10 -6 0 -13 5 -16 10 -3
6 1 10 9 10 9 0 16 -4 16 -10z m-290 -35 c0 -8 -4 -15 -10 -15 -5 0 -10 7 -10
15 0 8 5 15 10 15 6 0 10 -7 10 -15z m2591 -52 c-15 -27 -100 -107 -107 -101
-4 5 104 117 114 118 1 0 -2 -8 -7 -17z m-2263 -68 c7 -15 8 -25 2 -25 -6 0
-10 7 -10 16 0 13 -7 15 -30 11 -29 -6 -42 6 -17 16 27 11 44 6 55 -18z m-488
-5 c0 -5 -4 -10 -10 -10 -5 0 -10 5 -10 10 0 6 5 10 10 10 6 0 10 -4 10 -10z
m170 0 c0 -5 -7 -10 -15 -10 -8 0 -15 5 -15 10 0 6 7 10 15 10 8 0 15 -4 15
-10z m2580 6 c0 -2 -7 -7 -16 -10 -8 -3 -12 -2 -9 4 6 10 25 14 25 6z m-55
-46 c-3 -5 -11 -10 -16 -10 -6 0 -7 5 -4 10 3 6 11 10 16 10 6 0 7 -4 4 -10z
m-412 -30 c79 -20 123 -38 114 -47 -3 -2 -22 0 -44 6 -21 6 -52 11 -70 11 -27
0 -32 -4 -38 -30 -6 -27 -35 -44 -35 -20 0 6 -13 10 -30 10 -16 0 -30 5 -30
11 0 5 -5 7 -10 4 -6 -4 -8 -11 -5 -16 10 -15 -5 -49 -21 -49 -8 0 -13 4 -9
10 3 5 0 18 -7 30 -11 17 -9 24 18 50 17 17 40 32 52 33 12 1 22 5 22 9 0 11
4 10 93 -12z m321 -25 c-26 -40 -76 -65 -130 -65 -39 1 -45 3 -31 11 9 6 25 8
35 5 11 -4 41 9 77 33 33 22 61 40 63 40 1 1 -5 -10 -14 -24z m1096 -89 c-4
-13 -20 -31 -35 -40 l-28 -18 7 28 c4 16 10 47 13 69 3 22 13 48 22 59 15 17
16 16 23 -29 4 -26 3 -57 -2 -69z m-3113 62 c-3 -8 -6 -5 -6 6 -1 11 2 17 5
13 3 -3 4 -12 1 -19z m3 -42 c0 -7 -7 -19 -15 -26 -19 -16 -41 1 -32 24 8 20
47 21 47 2z m-212 -22 c-9 -10 -24 -14 -33 -10 -23 9 -9 26 23 26 24 0 25 -1
10 -16z m3522 -14 c0 -5 -5 -10 -11 -10 -5 0 -7 5 -4 10 3 6 8 10 11 10 2 0 4
-4 4 -10z m-465 -9 c3 -5 1 -12 -5 -16 -5 -3 -10 1 -10 9 0 18 6 21 15 7z
m447 -49 c-7 -9 -15 -24 -19 -32 -4 -8 -13 -21 -20 -28 -20 -21 -17 7 8 57 15
33 23 41 32 32 9 -9 8 -16 -1 -29z m-182 21 c-1 -10 -26 -43 -33 -43 -2 0 -7
7 -10 14 -4 10 -1 13 9 9 8 -3 14 1 14 11 0 9 5 16 10 16 6 0 10 -3 10 -7z
m-1380 -55 c-58 -49 -79 -53 -25 -5 28 25 52 43 55 40 3 -3 -11 -18 -30 -35z
m1370 -38 c-12 -29 -40 -42 -40 -18 0 14 41 60 48 53 3 -2 -1 -18 -8 -35z
m-2398 -62 c7 -13 11 -27 10 -31 -1 -5 6 -6 17 -2 11 3 25 -1 35 -10 9 -9 20
-13 26 -10 5 3 10 2 10 -3 0 -17 -13 -21 -31 -11 -24 13 -26 -12 -3 -32 13
-11 17 -10 26 5 29 53 69 69 77 31 2 -10 18 -33 37 -50 19 -18 34 -42 34 -54
0 -24 1 -24 53 -12 27 7 46 5 63 -4 24 -12 23 -13 -35 -39 -65 -29 -90 -51
-74 -67 5 -5 17 -7 26 -3 18 7 23 24 7 24 -5 0 -10 -5 -10 -12 0 -6 -3 -8 -7
-4 -5 4 0 14 11 21 16 12 23 11 52 -12 32 -24 45 -53 24 -53 -6 0 -9 -14 -8
-31 4 -42 -16 -48 -32 -9 -15 35 -48 47 -81 29 -16 -8 -24 -9 -27 -1 -2 7 -15
9 -33 5 -24 -5 -29 -2 -29 15 0 11 7 25 15 32 10 9 15 9 15 1 0 -6 5 -11 10
-11 16 0 11 17 -7 24 -10 4 -22 1 -28 -6 -6 -8 -22 -11 -43 -8 -35 5 -45 27
-11 22 18 -2 19 0 5 13 -8 8 -23 15 -33 15 -10 0 -25 14 -34 33 -9 19 -25 33
-37 35 -27 4 -28 26 -2 52 11 11 20 25 20 30 0 6 -22 24 -50 41 -27 17 -50 37
-50 45 0 17 5 17 30 4 13 -7 19 -6 24 5 8 22 23 18 38 -7z m2368 2 c0 -5 -4
-10 -10 -10 -5 0 -10 5 -10 10 0 6 5 10 10 10 6 0 10 -4 10 -10z m-1280 -15
c-7 -8 -17 -12 -22 -9 -6 4 -5 10 3 15 22 14 33 10 19 -6z m-2110 -5 c0 -5 -2
-10 -4 -10 -3 0 -8 5 -11 10 -3 6 -1 10 4 10 6 0 11 -4 11 -10z m3355 0 c3 -5
-1 -10 -10 -10 -9 0 -13 5 -10 10 3 6 8 10 10 10 2 0 7 -4 10 -10z m-2933 -45
c0 -5 -5 -11 -11 -13 -6 -2 -11 4 -11 13 0 9 5 15 11 13 6 -2 11 -8 11 -13z
m2183 -46 c8 -12 -22 -49 -40 -49 -23 0 -24 28 -2 44 27 18 34 19 42 5z
m-2655 -49 c0 -5 -4 -10 -10 -10 -5 0 -10 5 -10 10 0 6 5 10 10 10 6 0 10 -4
10 -10z m-32 -75 c0 -25 -4 -43 -9 -39 -11 7 -12 84 -1 84 5 0 9 -20 10 -45z
m1042 26 c0 -6 -4 -13 -10 -16 -5 -3 -10 1 -10 9 0 9 5 16 10 16 6 0 10 -4 10
-9z m104 -57 c3 -8 2 -12 -4 -9 -6 3 -10 10 -10 16 0 14 7 11 14 -7z m340 7
c8 -12 -4 -41 -16 -41 -6 0 -8 6 -5 14 3 7 0 19 -6 25 -8 8 -7 11 5 11 9 0 19
-4 22 -9z m1661 -11 c3 -6 -1 -7 -9 -4 -18 7 -21 14 -7 14 6 0 13 -4 16 -10z
m-3175 -39 c0 -6 -4 -13 -10 -16 -5 -3 -10 1 -10 9 0 9 5 16 10 16 6 0 10 -4
10 -9z m365 -40 c-3 -6 -11 -11 -17 -11 -6 0 -6 6 2 15 14 17 26 13 15 -4z
m555 -1 c0 -5 -4 -10 -10 -10 -5 0 -10 5 -10 10 0 6 5 10 10 10 6 0 10 -4 10
-10z m2144 -8 c2 -4 -4 -8 -14 -8 -10 0 -16 4 -14 8 3 4 9 8 14 8 5 0 11 -4
14 -8z m-2422 -44 c-9 -9 -12 -7 -12 12 0 19 3 21 12 12 9 -9 9 -15 0 -24z
m2178 25 c0 -12 -43 -53 -56 -53 -27 0 -23 19 9 39 33 22 47 26 47 14z m200
-3 c0 -5 -4 -10 -10 -10 -5 0 -10 5 -10 10 0 6 5 10 10 10 6 0 10 -4 10 -10z
m-1345 -50 c3 -5 1 -10 -4 -10 -6 0 -11 5 -11 10 0 6 2 10 4 10 3 0 8 -4 11
-10z m1430 -60 c-3 -5 -12 -10 -18 -10 -7 0 -6 4 3 10 19 12 23 12 15 0z
m-1535 -160 c0 -5 -7 -7 -15 -4 -8 4 -15 8 -15 10 0 2 7 4 15 4 8 0 15 -4 15
-10z"/>
<path d="M10120 6399 c0 -5 5 -7 10 -4 6 3 10 8 10 11 0 2 -4 4 -10 4 -5 0
-10 -5 -10 -11z"/>
<path d="M10590 5606 c0 -2 7 -7 16 -10 8 -3 12 -2 9 4 -6 10 -25 14 -25 6z"/>
<path d="M10625 5581 c-6 -10 9 -16 65 -26 l35 -6 -35 20 c-39 22 -56 25 -65
12z"/>
<path d="M9821 5515 c0 -6 -11 -16 -22 -24 -20 -12 -21 -11 -15 6 5 11 4 14
-2 8 -21 -22 -22 -52 -4 -68 17 -16 21 -14 60 20 23 20 42 43 42 51 0 12 -6
10 -24 -7 l-24 -23 -5 24 c-2 12 -5 18 -6 13z m-7 -59 c-3 -9 -10 -13 -15 -10
-5 3 -3 11 4 19 15 16 19 13 11 -9z"/>
<path d="M10880 5314 c-14 -7 -29 -15 -33 -16 -16 -6 40 -145 61 -153 8 -3 16
-4 18 -2 2 2 -11 32 -28 68 -18 35 -34 68 -36 72 -2 4 0 7 5 5 17 -4 53 14 53
28 0 17 -7 17 -40 -2z"/>
<path d="M9960 5205 c-7 -8 -21 -15 -30 -15 -26 0 -75 -44 -90 -80 -19 -45 -3
-49 35 -9 21 23 51 41 79 49 45 12 52 22 40 54 -8 20 -18 20 -34 1z"/>
<path d="M11592 5208 c-13 -13 -16 -38 -5 -38 22 0 73 26 73 37 0 17 -17 17
-24 1 -5 -10 -7 -10 -12 0 -7 15 -17 15 -32 0z"/>
<path d="M11750 5121 c0 -6 5 -13 10 -16 6 -3 10 1 10 9 0 9 -4 16 -10 16 -5
0 -10 -4 -10 -9z"/>
<path d="M8916 5089 c-20 -17 -33 -36 -30 -44 4 -10 18 -5 56 22 36 26 46 38
36 44 -20 13 -25 11 -62 -22z"/>
<path d="M10608 4903 c6 -2 18 -2 25 0 6 3 1 5 -13 5 -14 0 -19 -2 -12 -5z"/>
<path d="M11955 4616 c17 -14 38 -25 48 -26 43 -1 82 -28 104 -72 13 -24 32
-53 44 -64 20 -18 20 -18 14 6 -3 14 -11 54 -19 90 l-13 65 -66 0 c-38 0 -67
-4 -67 -10 0 -6 -3 -6 -8 0 -4 6 -20 16 -37 23 l-30 13 30 -25z m172 -46 c-1
-22 -17 -28 -17 -7 0 12 9 27 16 27 2 0 2 -9 1 -20z"/>
<path d="M12250 4359 c0 -8 7 -24 15 -35 18 -24 19 -7 0 26 -9 16 -14 19 -15
9z"/>
<path d="M12466 4028 c3 -13 13 -35 20 -49 7 -15 10 -29 7 -33 -3 -3 8 -11 25
-17 31 -11 44 -29 20 -29 -9 0 -9 -3 0 -12 22 -22 26 3 7 57 -10 30 -21 55
-25 55 -4 0 -19 11 -34 25 -27 25 -27 25 -20 3z"/>
<path d="M8706 3955 c-3 -8 -2 -15 3 -15 5 0 14 7 21 15 10 12 10 15 -3 15 -8
0 -17 -7 -21 -15z"/>
<path d="M8236 3435 c-9 -26 -7 -32 5 -12 6 10 9 21 6 23 -2 3 -7 -2 -11 -11z"/>
<path d="M8266 2911 c-4 -5 -2 -12 3 -15 5 -4 12 -2 15 3 4 5 2 12 -3 15 -5 4
-12 2 -15 -3z"/>
<path d="M8006 2836 c21 -15 30 -14 19 3 -3 6 -14 11 -23 11 -13 0 -13 -2 4
-14z"/>
<path d="M9089 3498 c3 -23 12 -43 19 -46 10 -3 12 5 6 34 -8 44 -12 54 -23
54 -4 0 -5 -19 -2 -42z"/>
<path d="M13150 3410 c-12 -7 -12 -12 -3 -21 9 -9 16 -9 27 1 26 21 5 39 -24
20z"/>
<path d="M10510 3200 c0 -5 5 -10 11 -10 5 0 7 5 4 10 -3 6 -8 10 -11 10 -2 0
-4 -4 -4 -10z"/>
<path d="M10698 3193 c6 -2 18 -2 25 0 6 3 1 5 -13 5 -14 0 -19 -2 -12 -5z"/>
<path d="M10877 2633 c-4 -3 -7 -13 -7 -22 1 -13 3 -13 11 2 11 19 8 33 -4 20z"/>
<path d="M10890 2610 c0 -5 5 -10 10 -10 6 0 10 5 10 10 0 6 -4 10 -10 10 -5
0 -10 -4 -10 -10z"/>
<path d="M11780 1245 c10 -12 10 -19 2 -27 -8 -8 -8 -15 -1 -24 7 -8 7 -14 -1
-19 -17 -10 -11 -25 10 -25 12 0 20 -7 20 -17 1 -17 1 -17 11 0 7 12 7 34 -1
72 -9 45 -15 55 -32 55 -17 0 -18 -2 -8 -15z"/>
<path d="M11621 1214 c0 -11 3 -14 6 -6 3 7 2 16 -1 19 -3 4 -6 -2 -5 -13z"/>
<path d="M11477 1274 c-4 -4 -4 -10 -1 -15 6 -10 34 0 34 12 0 10 -24 12 -33
3z"/>
<path d="M12642 6263 c1 -10 -2 -25 -7 -33 -7 -13 -6 -13 7 -2 9 7 14 21 11
32 -7 25 -15 26 -11 3z"/>
<path d="M12410 6230 c0 -5 4 -10 9 -10 6 0 13 5 16 10 3 6 -1 10 -9 10 -9 0
-16 -4 -16 -10z"/>
<path d="M12610 6199 c0 -5 5 -7 10 -4 6 3 10 8 10 11 0 2 -4 4 -10 4 -5 0
-10 -5 -10 -11z"/>
<path d="M13764 3401 c4 -5 -3 -7 -14 -4 -24 6 -126 -25 -141 -43 -8 -10 -7
-17 4 -29 8 -8 17 -20 19 -27 6 -17 69 -1 153 39 52 24 57 28 34 31 -21 2 -26
7 -22 23 4 14 0 19 -16 19 -12 0 -20 -4 -17 -9z m-24 -15 c0 -2 -9 -6 -20 -9
-11 -3 -18 -1 -14 4 5 9 34 13 34 5z"/>
<path d="M11320 3350 c0 -5 5 -10 10 -10 6 0 10 5 10 10 0 6 -4 10 -10 10 -5
0 -10 -4 -10 -10z"/>
<path d="M11360 3292 c0 -4 9 -13 20 -20 22 -13 27 -3 8 16 -14 14 -28 16 -28
4z"/>
<path d="M11320 3270 c-6 -11 -7 -20 -2 -20 6 0 12 9 15 20 3 11 3 20 1 20 -2
0 -8 -9 -14 -20z"/>
<path d="M7070 3126 c0 -2 7 -7 16 -10 8 -3 12 -2 9 4 -6 10 -25 14 -25 6z"/>
<path d="M7154 3083 c2 -5 26 -19 53 -32 61 -30 70 -35 118 -64 49 -30 85 -42
85 -28 0 5 -54 37 -119 70 -112 57 -149 71 -137 54z"/>
<path d="M12042 2929 c-13 -5 -28 -7 -33 -3 -18 11 -30 -8 -13 -21 14 -10 26
-10 57 -1 21 6 38 16 38 21 0 14 -22 16 -49 4z"/>
<path d="M11400 2531 c0 -13 12 -20 26 -14 20 8 17 19 -6 20 -11 1 -20 -2 -20
-6z"/>
<path d="M11340 2509 c-11 -8 -12 -12 -2 -16 6 -2 12 -11 12 -19 0 -8 5 -14
10 -14 6 0 10 14 10 30 0 32 -6 36 -30 19z"/>
<path d="M11624 2495 c-8 -21 11 -64 31 -72 24 -9 30 5 12 25 -10 10 -17 26
-17 35 0 23 -19 31 -26 12z"/>
<path d="M11423 2486 c4 -10 7 -26 7 -37 0 -10 4 -19 9 -19 14 0 8 46 -8 61
-13 11 -14 11 -8 -5z"/>
<path d="M11683 2465 c13 -26 37 -34 37 -12 0 16 -20 37 -36 37 -9 0 -9 -6 -1
-25z"/>
<path d="M11390 2470 c0 -5 5 -10 10 -10 6 0 10 5 10 10 0 6 -4 10 -10 10 -5
0 -10 -4 -10 -10z"/>
<path d="M11660 1841 c0 -6 5 -13 10 -16 6 -3 10 1 10 9 0 9 -4 16 -10 16 -5
0 -10 -4 -10 -9z"/>
<path d="M7920 1359 c0 -8 7 -24 16 -35 14 -18 15 -18 8 6 -8 31 -24 50 -24
29z"/>
<path d="M7898 1223 c7 -3 16 -2 19 1 4 3 -2 6 -13 5 -11 0 -14 -3 -6 -6z"/>
<path d="M7995 1201 c-3 -5 -1 -12 5 -16 5 -3 10 1 10 9 0 18 -6 21 -15 7z"/>
<path d="M7803 1099 c-31 -11 -38 -28 -17 -43 17 -13 17 -14 -2 -20 -23 -7
-40 -4 -36 7 1 4 -9 7 -22 7 -22 0 -24 -5 -28 -51 -3 -44 -1 -49 14 -45 10 2
20 0 23 -4 3 -5 17 -5 32 -1 18 5 30 18 39 43 7 20 20 48 30 63 16 25 19 26
30 10 7 -9 14 -13 17 -8 16 25 -43 56 -80 42z"/>
<path d="M8030 1030 c18 -16 21 -23 12 -32 -9 -9 -12 -9 -12 0 0 7 -7 12 -15
12 -13 0 -12 -4 4 -22 17 -17 23 -19 36 -8 21 18 19 36 -7 54 -32 23 -45 20
-18 -4z"/>
<path d="M7990 952 c0 -6 4 -13 10 -17 5 -3 6 -13 3 -23 -6 -15 -5 -15 11 1
10 10 17 19 15 20 -2 2 -12 9 -21 16 -11 8 -18 9 -18 3z"/>
<path d="M7687 879 c7 -7 15 -10 18 -7 3 3 -2 9 -12 12 -14 6 -15 5 -6 -5z"/>
<path d="M8017 861 c-37 -45 -34 -63 4 -24 17 17 30 36 27 43 -2 8 -14 0 -31
-19z"/>
<path d="M7746 795 c4 -8 10 -12 15 -9 11 6 2 24 -11 24 -5 0 -7 -7 -4 -15z"/>
<path d="M7836 787 c3 -10 9 -15 12 -12 3 3 0 11 -7 18 -10 9 -11 8 -5 -6z"/>
<path d="M7920 690 c0 -5 5 -10 11 -10 5 0 7 5 4 10 -3 6 -8 10 -11 10 -2 0
-4 -4 -4 -10z"/>
<path d="M7648 664 c25 -19 29 -39 7 -48 -29 -11 -16 -28 15 -21 24 5 31 3 37
-12 4 -10 14 -24 22 -30 13 -10 14 -14 2 -22 -7 -5 -11 -17 -7 -28 4 -13 1
-19 -12 -19 -9 -1 -24 -3 -32 -5 -9 -2 -16 4 -18 19 -2 12 -9 22 -17 22 -7 0
-16 6 -18 13 -3 7 -6 6 -6 -5 -1 -9 4 -20 9 -23 18 -11 10 -23 -20 -30 -16 -4
-30 -13 -30 -20 0 -8 -8 -20 -18 -27 -27 -19 -37 -39 -16 -31 11 4 15 2 11 -4
-4 -6 3 -19 14 -29 18 -16 20 -26 14 -71 -4 -31 -3 -53 3 -53 5 0 26 16 46 35
l37 34 -21 21 c-19 19 -28 60 -13 60 4 0 17 -12 29 -27 l22 -28 -5 27 c-3 17
1 38 12 54 17 26 17 27 -4 21 -24 -6 -28 5 -7 22 22 19 46 2 47 -33 1 -50 17
-1 18 56 1 26 6 50 11 53 14 9 12 68 -2 87 -7 8 -22 18 -33 21 -11 2 -38 12
-60 21 -37 15 -38 15 -17 0z m83 -57 c-1 -12 -15 -9 -19 4 -3 6 1 10 8 8 6 -3
11 -8 11 -12z"/>
<path d="M7940 622 c0 -12 19 -26 26 -19 2 2 -2 10 -11 17 -9 8 -15 8 -15 2z"/>
<path d="M8400 610 c-13 -8 -12 -10 3 -10 9 0 17 5 17 10 0 12 -1 12 -20 0z"/>
<path d="M7894 583 c-4 -16 -12 -31 -17 -35 -16 -10 -17 -55 -1 -55 8 0 14 6
14 14 0 7 7 13 15 13 11 0 14 -7 9 -24 -5 -23 17 -43 36 -31 13 8 -1 49 -22
64 -11 7 -17 20 -14 28 3 8 1 11 -4 8 -13 -8 -13 1 0 26 7 13 7 19 1 19 -6 0
-14 -12 -17 -27z"/>
<path d="M7665 560 c-3 -6 1 -7 9 -4 18 7 21 14 7 14 -6 0 -13 -4 -16 -10z"/>
<path d="M11146 561 c-4 -5 3 -7 14 -4 23 6 26 13 6 13 -8 0 -17 -4 -20 -9z"/>
<path d="M11868 514 c-52 -49 -55 -56 -34 -73 11 -9 21 -3 49 31 76 95 67 121
-15 42z"/>
<path d="M8157 494 c-8 -8 3 -34 14 -34 11 0 12 27 0 34 -4 3 -11 3 -14 0z"/>
<path d="M10515 468 l-16 -33 20 25 c20 24 26 40 16 40 -2 0 -12 -15 -20 -32z"/>
<path d="M11734 480 c-11 -4 -35 -22 -52 -39 -17 -18 -56 -43 -86 -57 -31 -14
-58 -30 -61 -35 -4 -5 -13 -9 -21 -9 -15 0 -53 -37 -54 -52 0 -5 11 -8 25 -8
14 0 28 -7 31 -15 4 -8 11 -15 16 -15 6 0 5 6 -2 15 -11 13 -8 15 14 15 14 0
26 5 26 11 0 6 9 8 20 4 15 -5 31 2 55 24 20 17 47 34 60 37 14 3 23 10 20 14
-6 9 25 23 34 15 3 -3 -1 -10 -9 -16 -13 -8 -13 -10 0 -19 24 -16 32 -12 25
13 -5 17 -4 18 4 7 5 -8 12 -12 14 -10 36 44 46 80 23 80 -9 0 -12 8 -8 25 4
22 1 25 -24 24 -16 0 -38 -4 -50 -9z m46 -26 c0 -3 -7 -12 -15 -21 -8 -8 -13
-19 -10 -24 11 -17 -12 -9 -30 11 -10 11 -13 20 -7 20 6 0 14 -5 18 -12 5 -7
10 -4 15 10 7 19 29 31 29 16z m-74 -51 c-7 -7 -26 7 -26 19 0 6 6 6 15 -2 9
-7 13 -15 11 -17z"/>
<path d="M11558 473 c7 -3 16 -2 19 1 4 3 -2 6 -13 5 -11 0 -14 -3 -6 -6z"/>
<path d="M10985 380 c-3 -5 -1 -10 4 -10 6 0 11 5 11 10 0 6 -2 10 -4 10 -3 0
-8 -4 -11 -10z"/>
<path d="M8155 341 c-3 -5 -1 -12 5 -16 5 -3 10 1 10 9 0 18 -6 21 -15 7z"/>
<path d="M9342 304 c-7 -8 -8 -14 -3 -14 10 0 25 19 20 25 -2 1 -10 -3 -17
-11z"/>
<path d="M10950 316 c0 -2 7 -7 16 -10 8 -3 12 -2 9 4 -6 10 -25 14 -25 6z"/>
<path d="M7860 240 c0 -22 4 -40 9 -40 6 0 9 18 8 40 -1 22 -5 40 -9 40 -4 0
-8 -18 -8 -40z"/>
<path d="M8454 168 c-4 -6 -17 -8 -30 -5 -14 2 -25 -1 -28 -10 -3 -8 -11 -11
-17 -7 -6 3 -15 0 -20 -7 -13 -21 -11 -32 6 -25 9 3 15 0 15 -9 0 -8 -9 -15
-20 -15 -14 0 -20 -7 -20 -23 0 -13 -5 -28 -11 -34 -24 -24 3 -33 97 -33 92 0
95 1 104 26 14 35 12 84 -2 84 -6 0 -4 6 6 13 17 12 13 53 -4 42 -5 -3 -11 -1
-14 4 -8 12 -55 11 -62 -1z"/>
<path d="M8816 23 c-11 -11 -6 -23 9 -23 8 0 15 4 15 9 0 13 -16 22 -24 14z"/>
<path d="M10038 3 c7 -3 16 -2 19 1 4 3 -2 6 -13 5 -11 0 -14 -3 -6 -6z"/>
</g>
</svg>
